<?xml version="1.0" encoding="UTF-8" standalone="no"?>
<!-- Created with Inkscape (http://www.inkscape.org/) -->

<svg
   xmlns:dc="http://purl.org/dc/elements/1.1/"
   xmlns:cc="http://creativecommons.org/ns#"
   xmlns:rdf="http://www.w3.org/1999/02/22-rdf-syntax-ns#"
   xmlns:svg="http://www.w3.org/2000/svg"
   xmlns="http://www.w3.org/2000/svg"
   xmlns:sodipodi="http://sodipodi.sourceforge.net/DTD/sodipodi-0.dtd"
   xmlns:inkscape="http://www.inkscape.org/namespaces/inkscape"
   width="522.49902"
   height="522.49902"
   viewBox="0 0 138.24454 138.24454"
   version="1.1"
   id="svg5876"
   inkscape:version="0.92.0 r"
   sodipodi:docname="matlab.svg">
  <defs
     id="defs5870" />
  <sodipodi:namedview
     id="base"
     pagecolor="#ffffff"
     bordercolor="#666666"
     borderopacity="1.0"
     inkscape:pageopacity="0.0"
     inkscape:pageshadow="2"
     inkscape:zoom="0.35"
     inkscape:cx="-182.85714"
     inkscape:cy="560"
     inkscape:document-units="mm"
     inkscape:current-layer="layer1"
     showgrid="false"
     units="px"
     inkscape:window-width="1920"
     inkscape:window-height="1016"
     inkscape:window-x="0"
     inkscape:window-y="27"
     inkscape:window-maximized="1" />
  <metadata
     id="metadata5873">
    <rdf:RDF>
      <cc:Work
         rdf:about="">
        <dc:format>image/svg+xml</dc:format>
        <dc:type
           rdf:resource="http://purl.org/dc/dcmitype/StillImage" />
        <dc:title></dc:title>
      </cc:Work>
    </rdf:RDF>
  </metadata>
  <g
     inkscape:label="Layer 1"
     inkscape:groupmode="layer"
     id="layer1"
     transform="translate(0,-158.75545)">
    <g
       transform="matrix(0.28222223,0,0,0.28222223,-11.433748,147.63348)"
       id="g5679">
      <path
         style="fill:#ffffff"
         d="M 40.51328,39.40907 H 530.35563 V 529.25142 H 40.51328 Z"
         id="rect4333"
         inkscape:connector-curvature="0" />
      <g
         transform="translate(5.2167029,2.6461528)"
         id="g5497">
        <g
           id="g3915"
           transform="matrix(0.0223112,0,0,0.0223112,209.28882,179.94806)">
          <g
             id="layer1-2"
             style="fill:#1d2747;stroke:none">
            <path
               inkscape:connector-curvature="0"
               id="path3595"
               d="m 1233,4457 c -12,-16 -14,-55 -3,-62 11,-7 21,10 25,41 3,28 -8,39 -22,21 z" />
            <path
               inkscape:connector-curvature="0"
               id="path3597"
               d="m 1234,4366 c -4,-10 -2,-22 4,-28 8,-8 13,-7 18,6 4,10 2,22 -4,28 -8,8 -13,7 -18,-6 z" />
            <path
               inkscape:connector-curvature="0"
               id="path3599"
               d="m 794,3846 c -4,-10 -2,-22 4,-28 8,-8 13,-7 18,6 4,10 2,22 -4,28 -8,8 -13,7 -18,-6 z" />
            <path
               inkscape:connector-curvature="0"
               id="path3601"
               d="m 785,3310 c -8,-12 20,-24 35,-15 6,3 8,11 5,16 -8,12 -32,12 -40,-1 z" />
            <path
               inkscape:connector-curvature="0"
               id="path3603"
               d="m 1005,3300 c -3,-5 0,-13 9,-16 21,-8 71,-1 71,11 0,14 -72,19 -80,5 z" />
            <path
               inkscape:connector-curvature="0"
               id="path3605"
               d="m 1225,3291 c -7,-12 12,-24 25,-16 11,7 4,25 -10,25 -5,0 -11,-4 -15,-9 z" />
            <path
               inkscape:connector-curvature="0"
               id="path3607"
               d="m 1725,3260 c -8,-12 20,-24 35,-15 6,3 8,11 5,16 -8,12 -32,12 -40,-1 z" />
            <path
               inkscape:connector-curvature="0"
               id="path3609"
               d="m 1855,3250 c -3,-5 0,-13 9,-16 21,-8 61,-1 61,11 0,14 -62,19 -70,5 z" />
            <path
               inkscape:connector-curvature="0"
               id="path3611"
               d="m 2065,3240 c -3,-5 0,-13 8,-16 23,-8 82,0 82,11 0,14 -82,19 -90,5 z" />
            <path
               inkscape:connector-curvature="0"
               id="path3613"
               d="m 2345,3230 c -3,-5 0,-13 9,-16 21,-8 61,-1 61,11 0,14 -62,19 -70,5 z" />
            <path
               inkscape:connector-curvature="0"
               id="path3615"
               d="m 2895,2678 c -9,-24 -2,-93 10,-93 14,0 19,85 6,98 -7,7 -12,5 -16,-5 z" />
            <path
               inkscape:connector-curvature="0"
               id="path3617"
               d="m 2905,2428 c -9,-24 -1,-103 10,-103 14,0 19,95 6,108 -7,7 -12,5 -16,-5 z" />
            <path
               inkscape:connector-curvature="0"
               id="path3619"
               d="m 2915,2217 c -9,-22 -2,-62 10,-60 6,1 11,14 13,29 4,32 -14,56 -23,31 z" />
            <path
               inkscape:connector-curvature="0"
               id="path3621"
               d="m 2925,2040 c -4,-6 -3,-16 3,-22 6,-6 12,-6 17,2 4,6 3,16 -3,22 -6,6 -12,6 -17,-2 z" />
            <path
               inkscape:connector-curvature="0"
               id="path3623"
               d="m 1315,1970 c -4,-6 -3,-16 3,-22 6,-6 12,-6 17,2 4,6 3,16 -3,22 -6,6 -12,6 -17,-2 z" />
            <path
               inkscape:connector-curvature="0"
               id="path3625"
               d="m 4118,1645 c -9,-9 7,-60 18,-58 5,1 10,8 12,15 3,16 -21,52 -30,43 z" />
            <path
               inkscape:connector-curvature="0"
               id="path3627"
               d="m 4085,1581 c -7,-12 12,-24 25,-16 11,7 4,25 -10,25 -5,0 -11,-4 -15,-9 z" />
            <path
               inkscape:connector-curvature="0"
               id="path3629"
               d="m 2954,1536 c -8,-21 3,-49 16,-41 5,3 10,15 10,25 0,25 -18,36 -26,16 z" />
            <path
               inkscape:connector-curvature="0"
               id="path3631"
               d="m 2965,1318 c -9,-24 -2,-93 10,-93 14,0 19,85 6,98 -7,7 -12,5 -16,-5 z" />
            <path
               inkscape:connector-curvature="0"
               id="path3633"
               d="m 3711,1236 c -7,-8 -8,-17 -3,-20 6,-3 15,1 21,8 7,8 8,17 3,20 -6,3 -15,-1 -21,-8 z" />
            <path
               inkscape:connector-curvature="0"
               id="path3635"
               d="m 3625,1170 c -4,-6 -10,-8 -15,-5 -5,3 -11,1 -14,-4 -4,-5 -2,-12 3,-15 5,-4 12,-2 16,4 4,6 10,8 15,5 5,-3 11,-1 14,4 4,5 2,12 -3,15 -5,4 -12,2 -16,-4 z" />
            <path
               inkscape:connector-curvature="0"
               id="path3637"
               d="m 3515,1150 c -8,-13 20,-24 41,-16 20,8 9,26 -16,26 -10,0 -22,-5 -25,-10 z" />
            <path
               inkscape:connector-curvature="0"
               id="path3639"
               d="m 2974,1126 c -3,-9 -4,-22 -1,-29 6,-15 42,-16 42,-2 0,6 -3,9 -7,8 -5,-2 -8,3 -8,11 0,22 -19,30 -26,12 z" />
          </g>
          <g
             id="layer2"
             style="fill:#91ca98;stroke:none">
            <path
               inkscape:connector-curvature="0"
               id="path3642"
               d="m 2610,4694 c -8,-3 -22,-8 -30,-11 -8,-3 -27,-7 -42,-8 -33,-3 -77,-30 -85,-51 -11,-30 90,-107 156,-118 37,-6 42,-10 76,-79 20,-39 46,-82 57,-94 13,-14 23,-41 25,-70 4,-43 2,-51 -24,-75 -28,-26 -187,-118 -205,-118 -5,0 -20,-7 -34,-16 -19,-13 -22,-19 -13,-30 9,-11 9,-13 -3,-9 -34,13 -114,-93 -89,-118 8,-8 14,-2 22,21 12,36 101,116 153,137 71,30 188,108 207,139 26,42 24,96 -3,132 -13,15 -41,64 -63,108 l -40,81 -62,21 c -78,27 -129,59 -136,84 -3,11 -1,18 3,15 5,-3 20,-1 34,5 46,17 78,22 201,29 67,4 132,3 148,-2 38,-12 62,8 26,21 -26,10 -254,14 -279,6 z" />
            <path
               inkscape:connector-curvature="0"
               id="path3644"
               d="m 2925,4671 c -7,-12 12,-24 24,-16 5,3 13,0 16,-6 4,-5 13,-8 21,-5 7,3 16,1 20,-5 3,-5 13,-9 22,-8 10,1 24,0 32,-3 61,-22 207,-69 215,-71 6,-1 12,3 15,8 6,11 -156,75 -204,79 -17,2 -39,7 -48,11 -9,4 -21,4 -27,1 -5,-4 -13,-1 -16,5 -4,5 -13,8 -21,5 -7,-3 -16,-1 -19,4 -8,13 -22,13 -30,1 z" />
            <path
               inkscape:connector-curvature="0"
               id="path3646"
               d="m 3315,4550 c -7,-12 90,-58 213,-101 133,-46 151,-60 192,-156 43,-99 77,-150 93,-134 8,8 4,17 -12,35 -12,13 -32,52 -44,87 -13,35 -34,79 -47,97 -24,33 -105,77 -185,102 -42,13 -81,28 -153,61 -49,22 -49,22 -57,9 z" />
            <path
               inkscape:connector-curvature="0"
               id="path3648"
               d="m 3825,4151 c -8,-14 82,-74 98,-65 6,4 9,4 5,0 -7,-9 49,-108 101,-178 23,-32 50,-54 83,-68 52,-22 71,-49 84,-115 4,-22 19,-62 34,-90 15,-27 35,-81 43,-120 9,-38 23,-88 33,-110 10,-22 17,-47 15,-57 -1,-9 3,-19 9,-23 13,-8 24,20 14,37 -4,7 -9,19 -10,28 0,8 -6,34 -12,58 -7,23 -17,61 -23,85 -6,23 -23,71 -39,107 -15,36 -34,85 -41,109 -18,59 -42,87 -99,116 -27,14 -51,29 -55,35 -4,6 -11,7 -17,4 -7,-4 -8,-2 -4,4 4,7 -7,32 -23,56 -17,25 -31,49 -31,54 0,18 -42,63 -96,103 -58,42 -60,43 -69,30 z" />
            <path
               inkscape:connector-curvature="0"
               id="path3650"
               d="m 2385,3868 c -9,-24 -1,-128 10,-131 13,-3 19,123 6,136 -7,7 -12,5 -16,-5 z" />
            <path
               inkscape:connector-curvature="0"
               id="path3652"
               d="m 3585,3848 c -22,-12 -53,-24 -68,-27 -15,-3 -27,-11 -25,-16 5,-15 66,-10 86,8 9,8 32,19 50,24 17,4 33,13 35,18 4,18 -38,15 -78,-7 z" />
            <path
               inkscape:connector-curvature="0"
               id="path3654"
               d="m 3688,3863 c -7,-11 69,-86 76,-75 8,13 -36,76 -56,80 -9,2 -18,-1 -20,-5 z" />
            <path
               inkscape:connector-curvature="0"
               id="path3656"
               d="m 3415,3806 c -46,-20 -125,-110 -125,-142 0,-36 -75,-109 -126,-123 -21,-6 -51,-24 -68,-40 -23,-22 -43,-31 -74,-33 -51,-4 -61,-22 -14,-26 l 32,-3 -20,-26 c -28,-36 -26,-88 5,-118 25,-26 49,-32 60,-16 3,6 -7,16 -22,23 -45,22 -44,101 2,118 15,6 23,15 19,24 -7,17 54,66 83,66 30,0 140,105 148,141 4,17 20,46 37,64 17,20 26,39 22,46 -4,8 -3,9 5,5 6,-4 23,0 36,8 14,9 25,14 25,10 0,-4 7,-1 15,6 8,7 12,16 9,21 -7,12 -13,11 -49,-5 z" />
            <path
               inkscape:connector-curvature="0"
               id="path3658"
               d="m 3716,3713 c -17,-29 -23,-50 -17,-56 6,-6 19,9 35,41 33,65 17,78 -18,15 z" />
            <path
               inkscape:connector-curvature="0"
               id="path3660"
               d="m 2395,3710 c -19,-31 200,-206 248,-199 7,1 20,-1 29,-5 22,-10 60,-4 56,9 -2,6 -17,10 -33,11 -17,0 -64,16 -104,34 -57,26 -85,48 -130,98 -40,45 -60,61 -66,52 z" />
            <path
               inkscape:connector-curvature="0"
               id="path3662"
               d="m 3450,3630 c -28,-28 -44,-70 -31,-83 6,-6 15,3 25,27 17,40 43,56 57,35 5,-8 8,-35 7,-61 -1,-44 13,-78 33,-78 14,0 50,78 39,85 -5,3 -15,-3 -22,-15 -19,-29 -23,-25 -23,24 0,29 -7,52 -19,65 -24,26 -41,26 -66,1 z" />
            <path
               inkscape:connector-curvature="0"
               id="path3664"
               d="m 3641,3626 c -12,-13 -18,-27 -13,-30 13,-8 64,33 57,45 -9,14 -20,11 -44,-15 z" />
            <path
               inkscape:connector-curvature="0"
               id="path3666"
               d="m 3585,3590 c -4,-6 -3,-16 3,-22 6,-6 12,-6 17,2 4,6 3,16 -3,22 -6,6 -12,6 -17,-2 z" />
            <path
               inkscape:connector-curvature="0"
               id="path3668"
               d="m 3385,3520 c -11,-17 5,-32 21,-19 7,6 11,15 8,20 -7,12 -21,11 -29,-1 z" />
            <path
               inkscape:connector-curvature="0"
               id="path3670"
               d="m 2775,3510 c -6,-10 5,-16 94,-44 37,-12 57,-14 64,-7 11,11 15,10 -77,41 -68,23 -73,24 -81,10 z" />
            <path
               inkscape:connector-curvature="0"
               id="path3672"
               d="m 3330,3455 c -21,-21 -44,-35 -64,-37 -41,-4 -40,-22 3,-26 26,-3 40,3 63,25 16,15 34,36 39,45 17,31 -8,27 -41,-7 z" />
            <path
               inkscape:connector-curvature="0"
               id="path3674"
               d="m 3125,3441 c -6,-11 33,-36 42,-27 4,3 12,1 19,-5 7,-6 18,-8 24,-4 14,8 2,28 -14,22 -6,-3 -20,1 -31,9 -22,16 -32,17 -40,5 z" />
            <path
               inkscape:connector-curvature="0"
               id="path3676"
               d="m 4335,3298 c -9,-22 -2,-68 10,-71 14,-3 19,63 6,76 -7,7 -12,5 -16,-5 z" />
            <path
               inkscape:connector-curvature="0"
               id="path3678"
               d="m 3137,3294 c -12,-12 4,-24 33,-24 21,0 36,-10 60,-41 27,-34 38,-40 64,-37 40,4 37,21 -6,30 -18,3 -34,11 -36,17 -11,33 -46,61 -76,61 -18,0 -36,-3 -39,-6 z" />
            <path
               inkscape:connector-curvature="0"
               id="path3680"
               d="m 3355,3201 c -7,-12 12,-24 25,-16 11,7 4,25 -10,25 -5,0 -11,-4 -15,-9 z" />
            <path
               inkscape:connector-curvature="0"
               id="path3682"
               d="m 3550,3201 c -20,-12 -81,-16 -102,-6 -23,9 -51,-1 -42,-16 3,-6 17,-9 30,-6 14,2 27,0 30,-4 8,-14 62,-10 95,6 16,9 27,20 24,25 -7,12 -15,12 -35,1 z" />
            <path
               inkscape:connector-curvature="0"
               id="path3684"
               d="m 3676,3202 c -3,-5 8,-22 24,-37 24,-23 30,-37 30,-72 0,-31 -5,-45 -19,-52 -24,-13 -31,-5 -31,35 0,47 -42,66 -87,38 -25,-15 -58,-96 -49,-119 7,-20 26,-10 26,14 0,40 45,101 74,101 3,0 6,-13 6,-29 0,-32 34,-81 56,-81 8,0 23,9 34,20 22,22 28,97 10,130 -13,25 -67,63 -74,52 z" />
            <path
               inkscape:connector-curvature="0"
               id="path3686"
               d="m 4346,3193 c -3,-3 -6,-48 -6,-98 0,-57 -6,-109 -15,-135 -8,-24 -14,-48 -14,-54 1,-6 -1,-18 -5,-27 -10,-23 -3,-99 9,-99 6,0 11,24 11,53 1,28 4,59 8,67 29,76 36,115 36,197 0,84 -7,113 -24,96 z" />
            <path
               inkscape:connector-curvature="0"
               id="path3688"
               d="m 3905,2963 c -14,-21 -36,-54 -48,-73 -20,-31 -28,-35 -64,-35 -23,0 -45,-3 -49,-7 -11,-12 47,-29 77,-23 25,6 79,61 79,82 0,4 9,19 20,33 l 19,25 40,-39 c 60,-58 74,-35 14,25 -26,27 -51,49 -55,49 -4,0 -18,-17 -33,-37 z" />
            <path
               inkscape:connector-curvature="0"
               id="path3690"
               d="m 3576,2962 c -8,-14 53,-67 64,-56 6,6 -3,19 -25,37 -18,15 -36,23 -39,19 z" />
            <path
               inkscape:connector-curvature="0"
               id="path3692"
               d="m 3655,2890 c -9,-15 44,-45 57,-32 7,7 1,15 -20,26 -18,9 -33,12 -37,6 z" />
            <path
               inkscape:connector-curvature="0"
               id="path3694"
               d="m 4045,2880 c -4,-7 2,-23 14,-38 12,-15 33,-51 47,-80 25,-50 44,-61 44,-23 0,16 -35,74 -78,130 -14,17 -21,20 -27,11 z" />
            <path
               inkscape:connector-curvature="0"
               id="path3696"
               d="m 4285,2683 c -28,-67 -74,-100 -117,-84 -16,6 -22,16 -22,42 -1,19 -5,35 -11,37 -13,4 -19,-34 -9,-56 4,-9 8,-19 8,-22 6,-28 59,-36 108,-15 18,7 78,94 78,113 0,28 -21,19 -35,-15 z" />
          </g>
          <g
             id="layer3"
             style="fill:#467e28;stroke:none">
            <path
               inkscape:connector-curvature="0"
               id="path3699"
               d="m 2550,4670 c -41,-11 -78,-24 -83,-29 -17,-17 -2,-45 39,-74 43,-30 143,-68 157,-60 16,9 -17,34 -58,44 -42,11 -115,62 -105,72 20,20 356,51 367,34 3,-4 12,-7 21,-6 10,1 30,-3 46,-10 15,-6 33,-11 40,-10 6,1 19,-1 29,-4 9,-4 25,-10 35,-14 9,-3 22,-5 29,-4 7,1 29,-5 49,-14 20,-8 45,-15 56,-15 11,0 61,-20 111,-43 113,-54 182,-82 262,-107 22,-7 54,-19 71,-27 34,-15 94,-91 94,-117 0,-30 47,-99 61,-90 11,7 -56,162 -83,192 -30,32 -73,53 -188,92 -52,18 -116,43 -142,56 -110,55 -257,105 -348,117 -19,3 -42,7 -50,11 -36,14 -83,19 -205,22 -105,3 -144,-1 -205,-16 z" />
            <path
               inkscape:connector-curvature="0"
               id="path3701"
               d="m 2676,4492 c -7,-11 39,-108 71,-150 36,-48 45,-96 25,-133 -17,-29 -138,-111 -212,-142 -19,-8 -45,-26 -58,-40 -36,-38 -8,-44 37,-8 21,17 44,31 51,31 12,0 116,60 159,93 63,47 76,119 36,203 -14,30 -30,52 -34,50 -5,-3 -16,14 -25,38 -18,47 -40,73 -50,58 z" />
            <path
               inkscape:connector-curvature="0"
               id="path3703"
               d="m 3777,4184 c -13,-13 9,-36 74,-79 53,-35 74,-56 93,-94 32,-63 76,-115 88,-103 8,8 -11,44 -77,144 -21,32 -169,141 -178,132 z" />
            <path
               inkscape:connector-curvature="0"
               id="path3705"
               d="m 2432,3967 c -31,-33 -39,-64 -41,-154 -2,-97 6,-117 81,-190 68,-67 159,-109 253,-117 39,-4 104,-17 145,-30 42,-13 102,-24 136,-25 55,0 63,2 89,29 16,17 47,35 68,41 53,14 147,105 147,142 0,35 69,112 114,127 18,6 50,11 72,12 21,0 64,13 94,28 75,37 125,32 148,-16 15,-32 14,-36 -9,-86 -32,-69 -54,-95 -98,-117 -25,-13 -46,-36 -65,-70 -15,-28 -31,-49 -36,-46 -13,8 -24,-15 -12,-27 16,-16 50,8 72,52 12,23 43,55 77,80 47,33 63,53 86,103 32,71 31,102 -9,154 -25,33 -66,45 -79,23 -4,-6 -15,-8 -24,-5 -10,3 -44,-7 -77,-21 -37,-17 -74,-26 -99,-25 -31,2 -50,-5 -82,-29 -24,-18 -43,-36 -43,-41 0,-6 -4,-8 -10,-4 -11,7 -34,-27 -51,-80 -12,-37 -64,-105 -78,-103 -29,3 -54,-8 -96,-46 -48,-41 -109,-64 -121,-44 -3,4 -23,8 -44,8 -21,0 -41,4 -45,9 -7,12 -134,41 -181,41 -92,0 -247,98 -280,175 -17,41 -21,162 -6,177 7,7 12,20 12,29 0,9 7,19 15,23 16,6 20,32 6,40 -4,3 -17,-5 -29,-17 z" />
            <path
               inkscape:connector-curvature="0"
               id="path3707"
               d="m 4035,3900 c -9,-15 15,-40 62,-65 49,-26 69,-50 84,-103 13,-47 26,-61 35,-39 8,22 -13,90 -37,121 -11,15 -37,33 -57,42 -20,8 -46,24 -58,35 -15,14 -24,17 -29,9 z" />
            <path
               inkscape:connector-curvature="0"
               id="path3709"
               d="m 4215,3661 c -3,-6 4,-27 15,-48 11,-21 20,-41 20,-45 0,-4 5,-19 12,-35 6,-15 10,-38 9,-50 -2,-19 13,-70 47,-163 3,-8 4,-43 3,-76 -2,-34 1,-64 6,-67 12,-7 -2,-172 -21,-246 -17,-62 -15,-104 3,-85 5,5 17,38 27,74 32,113 23,391 -17,505 -12,33 -23,67 -26,75 -3,8 -7,29 -9,47 -3,33 -37,107 -53,117 -5,4 -12,2 -16,-3 z" />
            <path
               inkscape:connector-curvature="0"
               id="path3711"
               d="m 3453,3618 c -12,-13 -28,-40 -37,-61 -8,-21 -36,-63 -62,-93 -54,-63 -70,-66 -189,-33 -57,15 -79,18 -95,9 -27,-15 -16,-30 22,-30 16,0 55,-7 85,-16 34,-10 74,-14 102,-11 40,4 51,12 93,59 26,29 58,76 72,105 33,67 43,72 53,23 10,-50 27,-57 31,-12 4,36 -20,82 -41,82 -8,0 -23,-10 -34,-22 z" />
            <path
               inkscape:connector-curvature="0"
               id="path3713"
               d="m 3021,3401 c -15,-28 -14,-76 3,-90 19,-16 29,1 20,34 -3,14 -1,31 5,39 8,10 8,16 -3,25 -12,10 -17,8 -25,-8 z" />
            <path
               inkscape:connector-curvature="0"
               id="path3715"
               d="m 3056,3301 c -4,-6 2,-15 14,-21 23,-12 115,0 115,15 0,13 -122,19 -129,6 z" />
            <path
               inkscape:connector-curvature="0"
               id="path3717"
               d="m 3217,3284 c -9,-9 20,-62 41,-72 9,-5 44,-13 77,-18 33,-4 67,-9 75,-10 95,-14 121,-14 150,1 31,16 32,42 1,30 -37,-16 -81,-22 -87,-13 -4,5 -20,8 -36,6 -16,-3 -31,-1 -34,4 -3,4 -15,8 -27,8 -42,0 -100,22 -122,46 -24,26 -28,28 -38,18 z" />
            <path
               inkscape:connector-curvature="0"
               id="path3719"
               d="m 3621,3216 c -13,-16 2,-32 19,-21 6,4 25,-1 42,-9 46,-23 60,-3 17,23 -40,25 -62,26 -78,7 z" />
            <path
               inkscape:connector-curvature="0"
               id="path3721"
               d="m 3739,3163 c -1,-5 -2,-34 -3,-67 -1,-45 -5,-61 -19,-70 -15,-9 -21,-7 -33,8 -8,11 -14,32 -14,47 0,51 -42,59 -79,15 -16,-19 4,-32 25,-15 18,14 17,15 33,-38 12,-43 44,-73 56,-53 4,6 11,7 17,4 6,-4 21,6 34,22 25,32 32,100 14,135 -11,19 -29,26 -31,12 z" />
            <path
               inkscape:connector-curvature="0"
               id="path3723"
               d="m 3556,3033 c -15,-16 -3,-52 28,-82 42,-40 59,-24 22,20 -14,17 -26,37 -26,44 0,16 -14,27 -24,18 z" />
            <path
               inkscape:connector-curvature="0"
               id="path3725"
               d="m 3905,2990 c -11,-17 5,-32 21,-19 7,6 11,15 8,20 -7,12 -21,11 -29,-1 z" />
            <path
               inkscape:connector-curvature="0"
               id="path3727"
               d="m 3955,2980 c -8,-12 85,-101 97,-94 15,10 8,21 -41,62 -30,25 -52,38 -56,32 z" />
            <path
               inkscape:connector-curvature="0"
               id="path3729"
               d="m 3854,2913 c -21,-27 -40,-50 -41,-52 -2,-2 -29,3 -60,12 -69,19 -96,6 -38,-19 70,-29 103,-30 131,-3 32,30 67,96 55,104 -5,3 -27,-16 -47,-42 z" />
            <path
               inkscape:connector-curvature="0"
               id="path3731"
               d="m 3641,2926 c -9,-10 -8,-16 3,-25 10,-9 16,-8 25,3 9,10 8,16 -3,25 -10,9 -16,8 -25,-3 z" />
            <path
               inkscape:connector-curvature="0"
               id="path3733"
               d="m 4055,2881 c -10,-17 15,-45 29,-31 7,7 5,15 -6,26 -11,11 -18,13 -23,5 z" />
            <path
               inkscape:connector-curvature="0"
               id="path3735"
               d="m 4086,2841 c -4,-5 4,-25 16,-44 13,-19 28,-43 35,-53 10,-18 11,-18 18,-1 5,11 1,25 -9,36 -9,10 -16,22 -16,28 0,16 -37,45 -44,34 z" />
            <path
               inkscape:connector-curvature="0"
               id="path3737"
               d="m 4293,2768 c -9,-14 -33,-103 -36,-130 -1,-9 -5,-14 -9,-12 -4,3 -16,-1 -28,-8 -17,-11 -25,-10 -51,4 -26,15 -31,16 -36,3 -9,-25 17,-45 57,-45 31,0 44,7 73,39 45,50 73,140 48,156 -5,3 -13,0 -18,-7 z" />
          </g>
          <g
             id="layer4"
             style="fill:#ffefd3;stroke:none">
            <path
               inkscape:connector-curvature="0"
               id="path3740"
               d="m 2630,2995 c -52,-51 -98,-91 -102,-89 -5,3 -12,-3 -16,-13 -10,-26 -102,-109 -130,-117 -12,-4 -29,-20 -36,-35 -15,-29 -85,-97 -129,-126 -15,-9 -27,-23 -27,-30 0,-13 -90,-101 -131,-128 -14,-10 -32,-28 -39,-42 -7,-13 -17,-22 -21,-19 -4,2 -12,-4 -18,-14 -15,-28 -67,-82 -80,-82 -6,0 -18,-12 -28,-27 -21,-33 -72,-83 -84,-83 -11,0 -89,-77 -89,-88 0,-5 -36,-46 -80,-93 -45,-46 -92,-97 -105,-114 -84,-101 -103,-126 -135,-168 -19,-26 -53,-72 -76,-101 -36,-48 -83,-133 -105,-191 -4,-11 -18,-44 -30,-74 -18,-44 -23,-74 -24,-153 0,-121 17,-131 27,-14 20,266 199,532 664,991 480,474 611,601 747,725 81,74 151,136 155,138 9,3 31,-280 38,-488 2,-74 9,-241 14,-370 12,-292 12,-782 0,-955 -23,-322 -108,-533 -279,-686 -77,-69 -175,-122 -306,-165 -99,-33 -120,-36 -211,-35 -227,3 -462,105 -614,267 -92,98 -174,262 -203,406 -13,62 -30,80 -35,39 -5,-31 24,-140 54,-206 12,-27 27,-64 32,-81 5,-17 27,-53 47,-80 42,-56 184,-204 195,-204 5,0 27,-16 50,-35 23,-19 47,-35 53,-35 7,0 39,-13 72,-28 109,-52 211,-72 352,-71 138,1 233,22 343,76 30,15 61,28 69,29 7,2 25,13 40,26 122,111 168,156 190,187 13,20 37,54 52,77 57,83 114,279 129,448 18,197 5,1441 -16,1496 -3,8 -7,69 -10,135 -5,167 -12,265 -18,281 -13,33 -53,11 -146,-81 z" />
            <path
               inkscape:connector-curvature="0"
               id="path3742"
               d="m 1925,1501 c -104,-16 -213,-99 -266,-202 -31,-61 -38,-195 -14,-268 21,-65 103,-156 177,-196 49,-28 60,-30 158,-30 125,0 157,13 246,102 80,80 104,136 104,243 0,104 -25,164 -100,244 -81,86 -190,124 -305,107 z m 192,-65 c 159,-81 224,-258 152,-412 -14,-30 -38,-62 -57,-75 -18,-12 -31,-28 -28,-35 3,-8 -17,-25 -52,-44 -49,-27 -68,-32 -137,-33 -118,-2 -182,25 -256,108 -82,91 -100,199 -54,322 25,64 67,123 89,123 5,0 22,12 37,26 59,57 215,67 306,20 z" />
          </g>
          <g
             id="layer5"
             style="fill:#da6c29;stroke:none">
            <path
               inkscape:connector-curvature="0"
               id="path3745"
               d="m 2585,2932 c -158,-144 -392,-371 -735,-712 -421,-418 -582,-627 -667,-865 -26,-74 -28,-91 -28,-220 1,-129 3,-146 29,-215 52,-139 106,-230 186,-314 166,-175 396,-276 627,-276 91,0 116,4 211,35 135,44 228,96 314,174 187,172 265,367 290,721 17,253 0,1114 -33,1600 -11,167 -19,210 -38,210 -3,0 -73,-62 -156,-138 z m 176,-402 c 8,-162 14,-515 14,-820 0,-510 -1,-541 -22,-659 -14,-78 -33,-147 -51,-185 -16,-34 -32,-73 -36,-87 -11,-50 -126,-187 -220,-262 -41,-33 -164,-97 -188,-97 -9,0 -20,-5 -23,-10 -3,-6 -16,-10 -29,-10 -13,0 -38,-8 -57,-17 -68,-35 -269,-25 -394,19 -146,51 -290,142 -371,232 -59,66 -64,74 -117,181 -87,178 -99,256 -68,450 14,89 90,271 121,290 6,4 20,26 31,51 12,24 39,61 60,83 21,21 39,42 39,45 0,26 222,269 445,486 93,91 241,237 330,325 88,88 207,203 265,255 58,52 127,116 153,142 26,27 55,48 63,48 8,0 18,8 22,18 8,19 12,-44 33,-478 z" />
            <path
               inkscape:connector-curvature="0"
               id="path3747"
               d="m 1867,1504 c -27,-8 -69,-30 -94,-47 -65,-45 -137,-154 -153,-228 -17,-80 -6,-184 26,-246 33,-63 108,-133 181,-168 51,-25 70,-29 153,-29 109,-1 142,12 243,93 189,152 163,443 -53,590 -72,49 -206,65 -303,35 z m 255,-51 c 68,-30 129,-92 164,-166 19,-42 24,-68 24,-137 0,-105 -20,-154 -93,-228 -82,-84 -113,-97 -237,-97 -98,0 -109,2 -158,30 -70,38 -136,112 -157,176 -24,72 -17,208 14,267 86,166 272,231 443,155 z" />
          </g>
          <g
             id="layer6"
             style="fill:#95ceb6;stroke:none">
            <path
               inkscape:connector-curvature="0"
               id="path3750"
               d="m 2875,4761 c -7,-13 17,-24 40,-19 9,1 16,8 16,13 0,14 -48,19 -56,6 z" />
            <path
               inkscape:connector-curvature="0"
               id="path3752"
               d="m 2465,4731 c -7,-12 12,-24 25,-16 11,7 4,25 -10,25 -5,0 -11,-4 -15,-9 z" />
            <path
               inkscape:connector-curvature="0"
               id="path3754"
               d="m 2386,4711 c -4,-6 -13,-8 -20,-5 -17,7 -30,-12 -16,-21 6,-4 16,-2 23,3 7,6 15,11 20,11 8,1 11,11 4,17 -3,3 -8,1 -11,-5 z" />
            <path
               inkscape:connector-curvature="0"
               id="path3756"
               d="m 2530,4694 c -19,-9 -49,-26 -66,-39 -26,-20 -30,-29 -26,-55 4,-25 12,-35 38,-46 18,-7 36,-19 39,-24 10,-16 57,-33 83,-31 29,3 62,-25 62,-54 0,-12 20,-48 44,-81 24,-32 46,-72 50,-88 9,-39 -17,-88 -58,-108 -223,-109 -322,-196 -315,-276 1,-15 -2,-35 -6,-45 -13,-31 3,-160 22,-174 9,-7 13,-13 8,-13 -5,0 19,-27 55,-60 36,-33 69,-60 75,-60 6,0 28,-9 48,-19 21,-11 61,-23 90,-27 134,-19 199,-34 236,-55 20,-12 38,-16 43,-11 9,9 58,5 58,-5 0,-2 -5,-14 -12,-26 -18,-34 -10,-79 19,-109 24,-26 33,-28 98,-28 57,0 75,-4 88,-18 10,-10 17,-24 17,-30 0,-17 34,-32 72,-32 18,0 72,-7 119,-16 51,-10 95,-14 105,-9 11,5 25,7 32,6 8,-1 19,3 27,9 9,8 14,7 19,-5 4,-10 19,-15 49,-15 62,0 80,-17 72,-63 -9,-47 -25,-48 -25,-2 0,42 -25,59 -76,49 -32,-6 -39,-13 -61,-62 -16,-36 -22,-64 -18,-81 7,-25 75,-101 92,-101 6,0 18,-9 27,-19 10,-11 28,-22 42,-25 13,-4 23,-12 21,-19 -2,-13 52,-12 66,3 10,9 -47,40 -75,40 -10,0 -28,11 -40,25 -12,14 -27,25 -34,25 -7,0 -27,18 -45,41 -30,38 -31,42 -20,79 14,48 35,70 67,70 20,0 24,-5 24,-32 0,-37 25,-69 48,-61 29,10 42,35 42,79 0,36 -5,46 -44,82 -40,37 -48,40 -83,35 -21,-3 -51,-13 -68,-21 -28,-15 -69,-17 -89,-4 -5,3 -21,6 -35,8 -14,1 -39,5 -56,9 -16,3 -47,6 -68,5 -33,0 -44,5 -76,41 l -36,41 h -73 c -51,-1 -76,3 -87,14 -20,20 -19,74 1,102 14,20 22,22 67,18 65,-6 106,-16 112,-26 3,-5 24,-6 47,-2 35,4 52,16 104,69 42,43 64,74 68,97 7,38 38,71 60,63 8,-3 17,-21 21,-39 4,-18 12,-39 19,-47 8,-11 8,-13 -1,-8 -18,11 -24,-8 -9,-28 11,-16 15,-14 47,26 41,53 90,98 105,99 6,0 17,7 24,15 10,12 10,18 -1,31 -12,15 -16,13 -39,-14 -14,-16 -40,-37 -58,-46 -18,-9 -30,-21 -27,-25 2,-5 -2,-14 -10,-21 -13,-11 -15,-8 -15,17 0,48 -26,75 -68,71 -34,-3 -39,-8 -69,-66 -34,-67 -75,-122 -92,-122 -5,0 -17,-10 -25,-21 -12,-17 -21,-20 -43,-15 -15,4 -38,8 -50,9 -12,1 -25,5 -29,10 -4,4 -18,7 -31,7 -38,0 -26,17 24,36 26,10 65,36 86,57 30,30 41,36 52,27 14,-12 31,3 21,18 -8,14 14,84 35,111 40,51 79,70 136,69 41,-1 60,4 84,21 20,15 49,25 78,26 39,3 48,0 58,-18 17,-30 16,-52 -2,-67 -16,-13 -17,-49 -2,-53 4,-1 20,19 34,44 l 25,46 -27,41 c -14,22 -37,43 -49,46 -28,7 -96,-11 -120,-32 -11,-11 -37,-17 -67,-18 -27,-1 -51,-3 -54,-4 -3,-1 -8,-3 -12,-5 -37,-10 -83,-38 -83,-50 0,-8 -9,-19 -19,-25 -11,-5 -27,-31 -36,-57 -20,-54 -106,-143 -139,-143 -12,0 -41,-16 -66,-36 -43,-34 -48,-36 -100,-29 -30,3 -62,6 -70,7 -8,0 -33,6 -55,13 -22,7 -56,18 -76,24 -19,6 -65,13 -101,15 -44,3 -82,13 -118,31 -59,30 -168,129 -169,154 -1,9 -5,47 -9,84 -4,38 -4,71 0,73 4,3 8,14 8,26 0,38 33,90 65,104 18,7 35,22 38,34 3,11 12,20 20,20 25,0 180,90 220,128 36,35 38,40 34,85 -2,29 -12,57 -24,70 -21,23 -66,104 -82,149 -9,25 -32,36 -101,52 -34,7 -110,64 -110,82 0,15 61,46 83,43 7,-1 19,0 27,3 8,4 24,9 35,14 11,4 23,8 28,8 4,1 8,5 10,11 4,16 -85,15 -123,-1 z" />
            <path
               inkscape:connector-curvature="0"
               id="path3758"
               d="m 2715,4701 c -8,-14 5,-19 65,-21 72,-3 75,-3 60,15 -14,17 -115,21 -125,6 z" />
            <path
               inkscape:connector-curvature="0"
               id="path3760"
               d="m 2865,4690 c -7,-11 39,-33 67,-32 10,0 20,-4 23,-9 4,-5 11,-7 16,-4 5,4 14,3 20,-1 7,-4 28,-8 48,-10 45,-4 161,-39 226,-68 119,-53 197,-85 300,-121 98,-34 141,-75 169,-159 20,-57 79,-146 99,-146 5,0 30,-16 53,-36 24,-19 49,-32 54,-29 6,4 10,3 8,-2 -2,-10 42,-102 52,-108 15,-9 20,13 10,40 -10,26 -106,126 -188,196 -33,28 -48,51 -65,100 -12,35 -30,75 -39,89 -16,23 -71,55 -138,82 -14,6 -33,14 -42,19 -10,5 -22,9 -27,9 -5,0 -22,5 -38,12 -15,6 -31,12 -34,12 -7,1 -121,51 -162,72 -16,8 -35,14 -43,14 -9,0 -39,11 -67,24 -29,13 -78,27 -111,30 -32,4 -66,10 -75,15 -28,15 -109,23 -116,11 z" />
            <path
               inkscape:connector-curvature="0"
               id="path3762"
               d="m 3245,4691 c -6,-11 13,-26 22,-17 3,3 14,1 25,-5 20,-11 45,-2 31,12 -13,13 -71,20 -78,10 z" />
            <path
               inkscape:connector-curvature="0"
               id="path3764"
               d="m 2212,4659 c -13,-5 -20,-13 -17,-19 8,-13 18,-13 40,3 23,17 8,28 -23,16 z" />
            <path
               inkscape:connector-curvature="0"
               id="path3766"
               d="m 2115,4616 c -11,-8 -14,-16 -8,-19 6,-4 18,0 28,7 11,8 14,16 8,19 -6,4 -18,0 -28,-7 z" />
            <path
               inkscape:connector-curvature="0"
               id="path3768"
               d="m 3465,4621 c -3,-6 3,-15 14,-21 12,-6 22,-6 26,-1 3,6 -3,15 -14,21 -12,6 -22,6 -26,1 z" />
            <path
               inkscape:connector-curvature="0"
               id="path3770"
               d="m 3515,4591 c -3,-6 4,-15 15,-21 11,-6 20,-8 20,-4 0,3 6,1 14,-5 10,-8 16,-9 21,-1 3,5 4,11 1,11 -3,1 -9,2 -13,3 -5,1 -18,7 -30,14 -13,7 -24,8 -28,3 z" />
            <path
               inkscape:connector-curvature="0"
               id="path3772"
               d="m 2055,4580 c -4,-6 -10,-8 -15,-5 -5,3 -11,1 -14,-4 -4,-5 -2,-12 3,-15 5,-4 12,-2 16,4 4,6 10,8 15,5 5,-3 11,-1 14,4 4,5 2,12 -3,15 -5,4 -12,2 -16,-4 z" />
            <path
               inkscape:connector-curvature="0"
               id="path3774"
               d="m 1956,4536 c -15,-13 -24,-26 -19,-29 13,-8 75,31 68,43 -9,14 -17,12 -49,-14 z" />
            <path
               inkscape:connector-curvature="0"
               id="path3776"
               d="m 1886,4489 c -24,-19 -28,-48 -5,-33 5,3 7,10 4,15 -3,5 0,6 8,3 16,-6 43,21 29,30 -5,3 -21,-4 -36,-15 z" />
            <path
               inkscape:connector-curvature="0"
               id="path3778"
               d="m 3675,4501 c -3,-6 3,-15 14,-21 12,-6 22,-6 26,-1 3,6 -3,15 -14,21 -12,6 -22,6 -26,1 z" />
            <path
               inkscape:connector-curvature="0"
               id="path3780"
               d="m 1825,4446 c -11,-8 -14,-16 -8,-19 6,-4 18,0 28,7 11,8 14,16 8,19 -6,4 -18,0 -28,-7 z" />
            <path
               inkscape:connector-curvature="0"
               id="path3782"
               d="m 3770,4435 c -10,-12 -9,-16 5,-21 23,-9 40,10 22,25 -11,9 -17,8 -27,-4 z" />
            <path
               inkscape:connector-curvature="0"
               id="path3784"
               d="m 3846,4372 c -3,-5 3,-17 13,-26 11,-10 22,-13 25,-8 3,5 -3,17 -13,26 -11,10 -22,13 -25,8 z" />
            <path
               inkscape:connector-curvature="0"
               id="path3786"
               d="m 3907,4334 c -3,-4 3,-20 15,-36 15,-21 23,-27 31,-19 8,8 4,18 -14,36 -14,14 -28,23 -32,19 z" />
            <path
               inkscape:connector-curvature="0"
               id="path3788"
               d="m 1645,4296 -28,-23 30,-21 c 32,-22 51,-19 31,5 -9,11 -9,19 0,33 18,29 0,32 -33,6 z" />
            <path
               inkscape:connector-curvature="0"
               id="path3790"
               d="m 3965,4270 c -8,-12 73,-87 89,-82 5,2 4,-3 -3,-12 -7,-8 -8,-17 -3,-20 6,-3 15,0 21,7 8,10 -2,26 -43,66 -35,35 -56,49 -61,41 z" />
            <path
               inkscape:connector-curvature="0"
               id="path3792"
               d="m 1697,4222 c -4,-5 9,-23 27,-41 19,-18 36,-29 39,-23 4,5 -9,23 -27,41 -19,18 -36,29 -39,23 z" />
            <path
               inkscape:connector-curvature="0"
               id="path3794"
               d="m 1817,4154 c -3,-3 -3,-13 0,-22 4,-10 2,-13 -5,-8 -22,13 -21,-12 2,-33 15,-15 26,-19 31,-12 6,11 -1,15 -18,12 -5,-1 -5,4 -1,11 16,26 9,69 -9,52 z" />
            <path
               inkscape:connector-curvature="0"
               id="path3796"
               d="m 4097,4124 c -3,-4 -2,-16 4,-26 8,-15 14,-17 22,-9 8,8 7,15 -4,26 -8,9 -18,13 -22,9 z" />
            <path
               inkscape:connector-curvature="0"
               id="path3798"
               d="m 1865,4059 c -8,-12 44,-71 57,-63 13,8 -12,46 -27,40 -9,-3 -12,0 -9,8 7,17 -12,30 -21,15 z" />
            <path
               inkscape:connector-curvature="0"
               id="path3800"
               d="m 4156,4042 c -7,-13 10,-52 22,-52 5,0 16,-16 25,-36 10,-19 22,-32 27,-29 11,7 -16,63 -48,104 -13,15 -22,20 -26,13 z" />
            <path
               inkscape:connector-curvature="0"
               id="path3802"
               d="m 1945,3992 c -9,-9 6,-21 20,-15 8,3 15,0 15,-7 0,-6 -4,-9 -9,-5 -21,13 -19,-14 3,-34 15,-15 26,-19 31,-12 6,11 -1,15 -19,12 -6,-1 -6,3 0,11 17,24 10,51 -14,53 -12,1 -24,0 -27,-3 z" />
            <path
               inkscape:connector-curvature="0"
               id="path3804"
               d="m 4021,3966 c -24,-28 23,-82 107,-125 33,-17 48,-33 63,-67 10,-25 19,-52 19,-60 0,-8 10,-34 21,-57 12,-23 29,-63 38,-89 9,-26 21,-48 26,-48 21,-2 16,34 -13,94 -16,33 -40,93 -52,131 -25,80 -45,115 -64,115 -7,0 -19,7 -26,15 -7,8 -21,15 -32,15 -25,0 -69,45 -62,63 7,20 -11,30 -25,13 z" />
            <path
               inkscape:connector-curvature="0"
               id="path3806"
               d="m 4245,3900 c -8,-13 13,-52 25,-45 9,6 2,43 -11,50 -4,3 -10,1 -14,-5 z" />
            <path
               inkscape:connector-curvature="0"
               id="path3808"
               d="m 2026,3891 c -8,-12 31,-44 44,-36 15,9 1,27 -17,21 -8,-3 -11,-2 -8,3 3,5 1,12 -4,15 -5,4 -12,2 -15,-3 z" />
            <path
               inkscape:connector-curvature="0"
               id="path3810"
               d="m 4285,3820 c -4,-6 -3,-16 3,-22 6,-6 12,-6 17,2 4,6 3,16 -3,22 -6,6 -12,6 -17,-2 z" />
            <path
               inkscape:connector-curvature="0"
               id="path3812"
               d="m 2126,3791 c -7,-10 28,-43 37,-35 8,8 -11,44 -23,44 -5,0 -11,-4 -14,-9 z" />
            <path
               inkscape:connector-curvature="0"
               id="path3814"
               d="m 2186,3731 c -8,-12 31,-44 44,-36 15,9 1,27 -17,21 -8,-3 -11,-2 -8,3 3,5 1,12 -4,15 -5,4 -12,2 -15,-3 z" />
            <path
               inkscape:connector-curvature="0"
               id="path3816"
               d="m 4335,3690 c -4,-6 -3,-16 3,-22 6,-6 12,-6 17,2 4,6 3,16 -3,22 -6,6 -12,6 -17,-2 z" />
            <path
               inkscape:connector-curvature="0"
               id="path3818"
               d="m 2256,3671 c -7,-10 -1,-15 15,-13 4,1 5,-6 3,-16 -5,-20 71,-88 81,-72 3,5 -16,33 -43,61 -31,32 -52,47 -56,40 z" />
            <path
               inkscape:connector-curvature="0"
               id="path3820"
               d="m 4355,3650 c -3,-5 -3,-16 2,-22 4,-7 8,-23 8,-36 0,-12 5,-23 10,-25 11,-3 15,42 4,49 -5,2 -6,11 -3,18 6,17 -12,31 -21,16 z" />
            <path
               inkscape:connector-curvature="0"
               id="path3822"
               d="m 2376,3552 c -9,-15 41,-65 56,-56 8,5 6,11 -6,20 -10,7 -23,20 -30,30 -9,12 -15,14 -20,6 z" />
            <path
               inkscape:connector-curvature="0"
               id="path3824"
               d="m 3345,3540 c -4,-6 -3,-16 3,-22 6,-6 12,-6 17,2 4,6 3,16 -3,22 -6,6 -12,6 -17,-2 z" />
            <path
               inkscape:connector-curvature="0"
               id="path3826"
               d="m 4296,3491 c -4,-6 0,-34 9,-62 20,-60 28,-106 29,-176 1,-28 4,-55 9,-59 15,-16 7,-184 -12,-247 -11,-34 -22,-98 -26,-142 -3,-44 -7,-92 -9,-106 -2,-25 -49,-98 -64,-100 -71,-10 -81,-8 -87,22 -4,16 -4,42 0,59 7,34 -20,105 -60,152 -14,16 -25,36 -25,43 0,8 -15,24 -32,36 -18,12 -46,34 -61,48 l -29,26 -29,-35 c -16,-19 -29,-39 -29,-45 -1,-14 -36,-55 -49,-55 -20,0 -21,-19 -1,-30 34,-18 77,20 85,75 1,6 5,18 9,27 7,16 9,16 35,0 56,-35 81,-60 75,-75 -3,-10 4,-22 21,-33 42,-27 68,-92 57,-142 -7,-30 -6,-46 3,-59 7,-10 14,-27 16,-38 3,-14 13,-20 39,-21 43,-2 82,17 104,50 9,14 21,25 27,23 6,-1 13,7 16,18 11,46 21,134 22,185 1,33 10,73 23,100 17,38 21,63 20,155 -1,61 -4,133 -7,160 -4,28 -8,70 -9,95 -1,25 -7,55 -14,67 -6,12 -12,28 -12,35 -1,22 -36,62 -44,49 z" />
            <path
               inkscape:connector-curvature="0"
               id="path3828"
               d="m 3175,3480 c -4,-6 -3,-16 3,-22 6,-6 12,-6 17,2 4,6 3,16 -3,22 -6,6 -12,6 -17,-2 z" />
            <path
               inkscape:connector-curvature="0"
               id="path3830"
               d="m 2476,3441 c -7,-11 28,-43 37,-34 12,11 8,22 -12,33 -11,5 -22,6 -25,1 z" />
            <path
               inkscape:connector-curvature="0"
               id="path3832"
               d="m 4418,3373 c -10,-20 -9,-75 3,-89 19,-23 39,1 32,39 -6,34 -28,65 -35,50 z" />
            <path
               inkscape:connector-curvature="0"
               id="path3834"
               d="m 2576,3352 c -7,-11 -1,-16 17,-13 5,1 6,-3 2,-9 -4,-6 4,-22 18,-36 39,-39 43,-10 4,32 -22,25 -36,33 -41,26 z" />
            <path
               inkscape:connector-curvature="0"
               id="path3836"
               d="m 4423,3234 c -8,-21 13,-42 28,-27 13,13 5,43 -11,43 -6,0 -13,-7 -17,-16 z" />
            <path
               inkscape:connector-curvature="0"
               id="path3838"
               d="m 2984,3225 c -9,-23 10,-40 25,-22 9,11 8,17 -4,27 -12,10 -16,9 -21,-5 z" />
            <path
               inkscape:connector-curvature="0"
               id="path3840"
               d="m 2756,3172 c -9,-15 21,-49 34,-36 7,7 5,15 -9,28 -10,9 -22,13 -25,8 z" />
            <path
               inkscape:connector-curvature="0"
               id="path3842"
               d="m 2545,3151 c -6,-11 29,-33 39,-24 7,7 -12,33 -25,33 -4,0 -10,-4 -14,-9 z" />
            <path
               inkscape:connector-curvature="0"
               id="path3844"
               d="m 3515,3140 c -10,-16 16,-43 28,-31 11,11 2,41 -12,41 -5,0 -13,-5 -16,-10 z" />
            <path
               inkscape:connector-curvature="0"
               id="path3846"
               d="m 2842,3077 c -10,-12 -8,-17 12,-31 31,-20 42,-5 18,24 -15,19 -19,20 -30,7 z" />
            <path
               inkscape:connector-curvature="0"
               id="path3848"
               d="m 3097,2833 c -4,-6 0,-18 7,-28 8,-11 16,-14 19,-8 4,6 0,18 -7,28 -8,11 -16,14 -19,8 z" />
            <path
               inkscape:connector-curvature="0"
               id="path3850"
               d="m 3785,2800 c -9,-15 3,-30 24,-30 21,0 44,23 34,33 -10,11 -51,8 -58,-3 z" />
            <path
               inkscape:connector-curvature="0"
               id="path3852"
               d="m 4033,2714 c -8,-21 13,-42 28,-27 13,13 5,43 -11,43 -6,0 -13,-7 -17,-16 z" />
            <path
               inkscape:connector-curvature="0"
               id="path3854"
               d="m 3257,2673 c -4,-6 0,-18 7,-28 8,-11 16,-14 19,-8 4,6 0,18 -7,28 -8,11 -16,14 -19,8 z" />
            <path
               inkscape:connector-curvature="0"
               id="path3856"
               d="m 4367,2663 c -8,-14 -2,-53 8,-56 12,-3 17,51 5,58 -5,3 -11,2 -13,-2 z" />
            <path
               inkscape:connector-curvature="0"
               id="path3858"
               d="m 4335,2550 c -4,-6 -3,-16 3,-22 6,-6 12,-6 17,2 4,6 3,16 -3,22 -6,6 -12,6 -17,-2 z" />
            <path
               inkscape:connector-curvature="0"
               id="path3860"
               d="m 3417,2513 c -4,-6 0,-18 7,-28 8,-11 16,-14 19,-8 4,6 0,18 -7,28 -8,11 -16,14 -19,8 z" />
            <path
               inkscape:connector-curvature="0"
               id="path3862"
               d="m 4280,2425 c -7,-19 -7,-32 -1,-38 7,-7 14,-1 21,18 7,19 7,32 1,38 -7,7 -14,1 -21,-18 z" />
            <path
               inkscape:connector-curvature="0"
               id="path3864"
               d="m 3571,2346 c -7,-8 -8,-17 -3,-20 6,-3 15,1 21,8 7,8 8,17 3,20 -6,3 -15,-1 -21,-8 z" />
            <path
               inkscape:connector-curvature="0"
               id="path3866"
               d="m 1344,2326 c -4,-10 -2,-22 4,-28 8,-8 13,-7 18,6 4,10 2,22 -4,28 -8,8 -13,7 -18,-6 z" />
            <path
               inkscape:connector-curvature="0"
               id="path3868"
               d="m 4170,2230 c -17,-32 5,-53 26,-25 8,10 13,24 11,29 -6,19 -26,17 -37,-4 z" />
            <path
               inkscape:connector-curvature="0"
               id="path3870"
               d="m 4116,2161 c -4,-6 -5,-11 -1,-11 3,0 1,-9 -5,-19 -14,-28 4,-35 25,-10 17,18 17,21 3,35 -11,11 -18,12 -22,5 z" />
            <path
               inkscape:connector-curvature="0"
               id="path3872"
               d="m 4066,2081 c -4,-6 -4,-16 0,-23 4,-6 3,-8 -4,-4 -6,3 -13,2 -16,-3 -12,-19 12,-20 29,-1 13,15 15,24 8,31 -8,8 -13,8 -17,0 z" />
            <path
               inkscape:connector-curvature="0"
               id="path3874"
               d="m 4013,2027 c -19,-24 -23,-36 -14,-41 5,-3 16,5 25,19 16,24 6,45 -11,22 z" />
            <path
               inkscape:connector-curvature="0"
               id="path3876"
               d="m 3915,2000 c -11,-17 5,-32 21,-19 7,6 11,15 8,20 -7,12 -21,11 -29,-1 z" />
            <path
               inkscape:connector-curvature="0"
               id="path3878"
               d="m 3950,1965 c -10,-12 -9,-16 5,-21 19,-8 40,9 31,25 -10,15 -21,14 -36,-4 z" />
          </g>
          <g
             id="layer7"
             style="fill:#4e8102;stroke:none">
            <path
               inkscape:connector-curvature="0"
               id="path3881"
               d="m 2745,4679 c -128,-7 -235,-25 -253,-43 -7,-7 -10,-20 -7,-28 9,-23 75,-65 122,-77 48,-13 75,-41 102,-103 11,-25 25,-50 33,-55 28,-17 49,-77 44,-128 -3,-42 -9,-54 -41,-80 -20,-17 -53,-40 -73,-50 -20,-11 -44,-25 -54,-33 -9,-7 -22,-12 -30,-10 -7,1 -29,-12 -48,-30 -19,-18 -42,-32 -52,-32 -19,0 -68,-65 -68,-90 0,-9 -5,-21 -12,-28 -15,-15 -11,-136 6,-177 7,-16 42,-57 78,-90 70,-65 155,-105 222,-105 47,0 174,-29 181,-41 4,-5 24,-9 45,-9 21,0 41,-4 44,-9 13,-20 83,7 125,47 37,36 58,46 87,41 10,-2 94,84 94,95 0,22 33,95 41,91 4,-3 14,3 21,13 30,40 72,63 113,61 26,-1 61,8 99,25 33,14 67,24 77,21 9,-3 20,-1 24,5 12,19 52,11 69,-15 30,-45 30,-77 -1,-140 -21,-44 -40,-67 -78,-92 -27,-19 -61,-53 -75,-76 -22,-39 -41,-60 -47,-53 -1,1 -5,20 -8,42 -18,121 -47,131 -94,34 -16,-32 -46,-79 -67,-104 -45,-55 -83,-65 -164,-46 -106,24 -150,27 -162,13 -6,-7 -8,-16 -5,-20 4,-3 2,-12 -4,-19 -12,-15 -2,-81 14,-91 6,-3 36,-5 67,-4 61,2 100,-11 158,-54 19,-13 55,-27 80,-31 26,-3 51,-9 57,-12 5,-4 22,-5 37,-3 14,1 29,-2 32,-7 4,-6 20,-6 43,0 21,6 51,10 67,9 16,0 35,4 43,10 19,17 54,4 96,-34 32,-30 37,-41 37,-79 0,-32 -6,-50 -20,-63 -11,-10 -20,-15 -20,-10 0,4 -6,2 -14,-4 -18,-15 -35,6 -43,54 -3,20 -11,39 -18,41 -18,7 -66,-22 -80,-49 -14,-27 -1,-71 28,-96 10,-7 17,-20 17,-28 0,-7 8,-17 18,-20 9,-4 24,-15 32,-24 14,-16 118,-49 153,-49 10,0 22,11 27,24 5,13 26,41 47,62 21,21 37,42 35,46 -11,35 106,-46 120,-83 4,-11 12,-19 18,-19 5,0 10,-7 10,-15 0,-8 9,-19 20,-25 11,-6 20,-17 20,-24 0,-8 6,-19 14,-25 10,-8 12,-29 8,-79 -4,-66 -3,-70 23,-90 33,-26 42,-27 82,-7 22,11 34,28 46,66 10,28 17,60 17,70 0,10 4,20 10,24 5,3 9,40 8,83 -1,47 5,94 15,122 17,47 25,189 13,209 -4,7 -7,38 -5,69 1,31 0,64 -3,72 -31,84 -48,141 -48,162 0,27 -20,92 -44,143 -23,48 -43,97 -55,136 -13,41 -39,66 -95,95 -21,10 -41,26 -44,34 -3,8 -19,29 -35,45 -16,17 -39,50 -52,75 -26,51 -45,70 -112,114 -26,17 -54,43 -61,59 -7,15 -17,27 -22,27 -10,0 -40,57 -40,78 0,8 -11,30 -25,48 -14,18 -25,37 -25,42 0,14 -57,46 -120,66 -30,10 -63,22 -72,27 -10,5 -22,9 -27,9 -9,0 -63,24 -209,91 -34,16 -70,29 -81,29 -10,0 -35,7 -55,15 -20,9 -42,15 -49,14 -7,-1 -20,1 -29,4 -10,4 -26,10 -35,14 -10,3 -23,5 -29,4 -7,-1 -25,4 -40,10 -16,7 -35,11 -42,10 -8,-1 -19,1 -25,6 -7,4 -61,5 -122,2 z" />
          </g>
          <g
             id="layer8"
             style="fill:#91cdcb;stroke:none">
            <path
               inkscape:connector-curvature="0"
               id="path3884"
               d="m 2565,4759 c -33,-5 -67,-12 -75,-16 -8,-3 -19,-5 -23,-4 -10,2 -129,-29 -142,-37 -5,-4 -19,-8 -30,-9 -57,-9 -264,-102 -294,-132 -12,-12 -25,-20 -30,-19 -15,5 -166,-100 -248,-171 -53,-46 -77,-74 -79,-91 -2,-21 53,-80 314,-342 174,-174 320,-314 325,-311 6,3 7,2 4,-4 -3,-5 369,-383 826,-840 693,-691 836,-830 858,-829 19,1 43,21 89,73 35,40 65,80 66,89 1,9 12,23 23,31 22,15 57,73 44,73 -4,0 3,7 15,16 32,22 163,290 175,359 2,11 9,32 15,46 11,27 50,203 50,229 0,8 3,35 7,60 3,25 9,95 12,155 5,95 3,112 -11,124 -12,10 -13,17 -5,27 14,17 7,60 -9,56 -14,-2 -17,54 -2,63 11,7 7,34 -27,170 -13,55 -30,106 -36,114 -7,8 -10,15 -8,15 7,2 -20,77 -42,121 -12,22 -22,46 -23,53 -9,50 -166,285 -237,355 -33,31 -56,57 -51,57 4,0 -10,18 -31,41 -54,54 -168,149 -177,146 -4,-1 -14,7 -22,19 -18,25 -150,107 -264,164 -118,58 -299,117 -433,138 -126,21 -417,27 -524,11 z m 365,-87 c 25,-6 63,-15 85,-21 22,-6 54,-11 70,-11 17,0 53,-11 80,-25 28,-13 59,-25 70,-25 11,0 29,-7 39,-15 11,-8 27,-15 37,-15 9,0 28,-9 43,-21 14,-11 26,-18 26,-14 0,3 13,-1 30,-10 16,-8 31,-15 32,-14 2,0 16,-4 31,-10 16,-6 33,-11 38,-11 5,0 17,-4 27,-9 9,-5 31,-14 47,-21 107,-45 125,-62 150,-142 18,-58 70,-138 90,-138 22,0 163,-150 170,-179 8,-38 85,-121 112,-121 12,0 23,-7 27,-15 3,-8 14,-15 24,-15 19,0 48,-62 68,-144 4,-17 20,-54 36,-84 15,-30 28,-68 28,-84 0,-16 6,-42 14,-56 30,-58 40,-89 42,-132 1,-25 5,-70 8,-100 14,-152 15,-179 7,-230 -5,-30 -16,-75 -25,-100 -9,-25 -19,-89 -22,-143 -5,-90 -8,-100 -37,-136 -54,-67 -110,-77 -138,-26 -12,22 -14,38 -7,69 7,33 5,48 -16,92 -15,30 -34,55 -46,59 -15,5 -19,12 -15,25 4,13 -4,26 -31,47 -20,15 -44,36 -53,46 -8,9 -20,17 -26,17 -18,0 -58,-47 -51,-59 6,-8 -3,-32 -22,-61 -2,-2 -30,-3 -63,-2 -61,3 -137,30 -159,57 -7,8 -16,15 -20,15 -15,0 -70,61 -76,84 -3,12 4,43 15,68 15,37 26,47 50,53 39,8 51,1 51,-34 0,-16 7,-34 16,-41 20,-18 40,3 49,51 6,32 3,39 -22,59 -15,12 -28,27 -28,33 0,7 -11,12 -25,12 -15,0 -24,-5 -22,-12 3,-19 -19,-16 -33,4 -10,13 -16,15 -26,6 -27,-21 -95,-25 -172,-9 -42,9 -94,16 -115,16 -34,0 -42,5 -63,38 l -24,37 -81,3 c -63,2 -85,7 -97,20 -21,23 -24,70 -8,100 9,17 9,27 1,37 -14,16 -56,25 -68,13 -5,-5 -23,-1 -43,11 -29,17 -73,29 -164,45 -11,2 -46,7 -78,11 -31,4 -60,11 -62,15 -3,5 -22,14 -43,21 -23,7 -60,36 -99,76 -53,56 -62,71 -68,113 -8,60 3,176 20,210 24,45 90,100 171,141 43,23 95,49 114,59 54,28 83,74 75,118 -4,21 -17,51 -29,67 -12,17 -27,42 -34,58 -6,15 -16,27 -22,27 -5,0 -10,11 -10,24 0,39 -40,72 -97,80 -28,3 -57,14 -64,22 -7,9 -23,20 -36,25 -50,19 -22,70 57,105 31,14 325,10 390,-4 z" />
            <path
               inkscape:connector-curvature="0"
               id="path3886"
               d="m 3625,3842 c -11,-4 -33,-16 -48,-26 -21,-14 -44,-19 -82,-18 -39,1 -60,-4 -78,-18 -14,-11 -29,-20 -35,-20 -14,0 -60,-70 -68,-105 -7,-29 -59,-87 -99,-111 -11,-7 -44,-24 -73,-38 -48,-23 -52,-27 -42,-46 7,-13 21,-20 39,-20 15,0 31,-3 35,-7 4,-5 17,-9 29,-10 12,-2 39,-5 60,-9 33,-6 39,-4 44,15 3,11 11,21 17,21 21,0 74,69 102,131 25,55 29,59 60,59 28,0 35,-5 40,-25 3,-14 3,-41 0,-59 -10,-51 8,-51 45,-1 19,24 42,47 51,50 10,4 27,18 39,33 11,15 24,27 27,27 18,1 32,18 32,40 0,12 7,25 15,29 20,7 19,45 -4,81 -14,24 -26,31 -52,32 -19,1 -43,-2 -54,-5 z" />
            <path
               inkscape:connector-curvature="0"
               id="path3888"
               d="m 1625,3260 c -8,-12 20,-24 35,-15 6,3 8,11 5,16 -8,12 -32,12 -40,-1 z" />
            <path
               inkscape:connector-curvature="0"
               id="path3890"
               d="m 1135,3080 c -8,-12 20,-24 35,-15 6,3 8,11 5,16 -8,12 -32,12 -40,-1 z" />
            <path
               inkscape:connector-curvature="0"
               id="path3892"
               d="m 3755,1620 c -8,-12 20,-24 35,-15 6,3 8,11 5,16 -8,12 -32,12 -40,-1 z" />
          </g>
          <g
             id="layer9"
             style="fill:#fb6204;stroke:none">
            <path
               inkscape:connector-curvature="0"
               id="path3895"
               d="m 2710,3026 c -45,-45 -216,-203 -285,-264 -44,-39 -137,-128 -206,-199 -70,-70 -200,-199 -290,-286 -182,-175 -363,-367 -445,-469 -30,-37 -54,-69 -54,-71 0,-2 -18,-23 -39,-46 -22,-24 -49,-62 -60,-86 -11,-24 -25,-46 -31,-50 -31,-19 -107,-201 -121,-290 -31,-194 -19,-272 68,-450 53,-107 58,-115 118,-182 129,-144 296,-236 506,-278 103,-21 228,-17 278,8 19,9 45,17 58,17 13,0 31,4 41,9 9,6 50,26 90,45 41,20 90,48 109,63 98,78 227,229 239,282 4,14 20,53 36,87 18,38 37,107 51,185 21,118 22,149 22,659 0,470 -8,741 -34,1215 -5,87 -9,110 -21,113 -8,1 -22,-4 -30,-12 z M 2087,1486 c 104,-28 211,-144 234,-254 15,-73 5,-172 -22,-231 -25,-54 -113,-139 -178,-173 -39,-19 -60,-23 -141,-22 -83,0 -102,4 -153,28 -69,34 -130,91 -162,152 -31,58 -42,170 -25,245 15,68 89,180 138,211 88,55 205,72 309,44 z" />
          </g>
          <g
             id="layer10"
             style="fill:#32416c;stroke:none">
            <path
               inkscape:connector-curvature="0"
               id="path3898"
               d="m 1229,4465 c -5,-2 -4,-83 2,-90 4,-5 7,-21 7,-35 0,-14 3,-38 6,-55 10,-52 19,-245 12,-245 -4,0 -26,13 -49,29 -121,82 -264,62 -361,-50 -19,-23 -35,-44 -34,-48 1,-3 -4,-18 -10,-32 -6,-15 -10,-57 -10,-94 1,-56 7,-75 32,-118 50,-82 167,-156 202,-126 7,6 15,6 18,1 9,-15 -89,-117 -146,-152 -174,-109 -188,-121 -168,-145 7,-9 30,-15 54,-16 73,-1 298,-10 386,-16 47,-3 127,-6 178,-8 50,-2 111,-6 135,-9 23,-4 105,-9 182,-12 154,-7 204,-9 410,-20 77,-4 203,-7 280,-8 129,-1 140,0 143,18 3,14 -159,182 -604,627 -533,533 -612,609 -636,607 -16,-1 -28,-2 -29,-3 z" />
            <path
               inkscape:connector-curvature="0"
               id="path3900"
               d="m 2240,3145 c -151,-7 -349,-18 -440,-24 -188,-13 -462,-28 -759,-41 -167,-7 -207,-12 -220,-25 -15,-15 -13,-19 17,-44 18,-15 61,-45 96,-65 77,-45 133,-92 177,-148 33,-41 33,-41 8,-35 -40,10 -93,-10 -143,-54 -64,-56 -96,-122 -96,-196 0,-88 16,-130 69,-183 71,-71 102,-84 194,-82 83,2 135,21 171,61 11,12 24,21 29,21 12,0 2,-183 -16,-284 -7,-38 -13,-87 -12,-110 0,-38 2,-41 30,-44 28,-2 80,47 638,605 334,335 607,614 607,620 0,15 -40,43 -60,42 -8,-1 -139,-7 -290,-14 z" />
            <path
               inkscape:connector-curvature="0"
               id="path3902"
               d="m 2890,2825 c -8,-10 -10,-34 -5,-77 5,-35 10,-112 11,-173 4,-129 11,-282 18,-415 10,-173 14,-263 21,-430 4,-91 9,-172 12,-180 3,-8 7,-62 10,-120 13,-357 16,-380 51,-361 9,5 44,53 77,107 33,54 87,125 120,157 55,54 60,57 63,36 2,-13 6,-31 9,-39 3,-8 7,-23 8,-32 4,-42 89,-124 157,-152 38,-16 142,-14 188,4 3,1 8,2 12,1 13,-2 116,104 132,136 10,21 16,58 16,108 0,82 -16,126 -63,178 l -26,27 27,2 c 71,3 163,-3 225,-16 96,-21 175,-27 184,-13 24,39 12,53 -592,657 -334,334 -610,602 -622,604 -12,3 -27,-2 -33,-9 z" />
          </g>
          <g
             id="layer11"
             style="fill:#feffff;stroke:none">
            <path
               inkscape:connector-curvature="0"
               id="path3905"
               d="M 0,2560 V 0 H 2560 5120 V 2560 5120 H 2560 0 Z m 3086,2170 c 438,-75 840,-336 1084,-703 280,-421 351,-942 194,-1432 -37,-117 -125,-296 -201,-407 -67,-100 -177,-228 -195,-228 -6,0 -532,521 -1170,1158 l -1159,1157 58,53 c 208,192 485,332 773,392 129,27 132,27 327,29 131,1 198,-4 289,-19 z M 1883,3852 c 328,-328 597,-604 597,-611 0,-12 -35,-13 -216,-7 -119,4 -325,13 -458,21 -132,8 -376,21 -541,30 -165,8 -351,18 -412,21 -62,3 -113,10 -113,14 0,9 39,36 158,109 29,19 79,63 112,99 67,73 67,89 0,89 -59,0 -127,46 -167,113 -28,45 -33,64 -33,116 0,106 35,173 118,221 40,24 58,28 122,28 82,0 129,-17 176,-63 25,-26 26,-26 40,-7 20,27 18,131 -6,266 -11,63 -20,124 -20,137 0,63 39,28 643,-576 z m 687,-729 c 0,-9 -269,-286 -597,-615 -605,-604 -643,-638 -643,-574 0,13 7,63 16,112 21,110 24,278 7,295 -10,10 -18,8 -40,-13 -47,-44 -86,-57 -170,-60 -90,-2 -121,10 -183,72 -92,92 -79,272 27,359 42,35 95,53 128,45 12,-3 27,1 33,9 10,11 1,26 -47,78 -59,65 -74,77 -204,159 -37,23 -67,46 -67,50 0,10 79,16 495,35 182,9 398,20 480,26 83,6 276,17 430,24 154,6 292,13 308,14 19,1 27,-4 27,-16 z m 191,-60 c 4,-68 9,-152 13,-258 3,-72 7,-137 10,-145 21,-56 34,-1300 16,-1496 -17,-185 -74,-373 -141,-461 -21,-29 -44,-63 -50,-75 -13,-26 -182,-179 -201,-182 -7,-1 -38,-14 -68,-29 -30,-15 -91,-38 -136,-51 -159,-47 -404,-30 -544,39 -25,12 -62,28 -82,34 -21,7 -38,17 -38,21 0,5 -20,21 -44,35 -77,45 -237,229 -252,290 -4,15 -17,48 -29,73 -45,95 -55,157 -51,312 3,123 6,152 25,195 12,28 26,59 30,70 63,167 378,561 610,764 28,24 53,52 56,62 4,11 12,19 18,19 7,0 48,37 92,83 44,45 107,107 140,138 33,31 104,102 158,158 53,55 100,101 103,101 7,0 170,146 264,237 68,66 99,86 101,66 z m 771,-840 c 647,-646 652,-652 546,-639 -29,4 -85,13 -124,21 -93,19 -239,21 -260,4 -13,-11 -11,-16 14,-43 49,-51 62,-88 62,-171 0,-91 -19,-136 -81,-188 -140,-120 -371,-37 -396,142 -5,30 -13,56 -19,58 -21,7 -149,-132 -201,-218 -28,-47 -58,-91 -66,-98 -18,-14 -21,16 -37,354 -12,272 -17,348 -35,650 -7,132 -17,308 -20,390 -3,83 -8,192 -11,243 -5,83 -4,92 12,92 10,0 279,-261 616,-597 z" />
            <path
               inkscape:connector-curvature="0"
               id="path3907"
               d="m 1895,1477 c -49,-13 -137,-70 -182,-118 -12,-14 -34,-55 -48,-92 -47,-125 -28,-229 59,-329 81,-92 150,-123 271,-121 69,1 88,6 136,32 57,32 77,48 78,66 1,6 5,10 10,10 13,0 43,42 71,100 58,120 30,254 -75,360 -87,87 -205,121 -320,92 z" />
          </g>
        </g>
        <g
           id="text3764"
           style="font-style:normal;font-variant:normal;font-weight:normal;font-stretch:normal;font-size:136.33406067px;line-height:125%;font-family:'Segoe Script';-inkscape-font-specification:'Segoe Script';letter-spacing:0px;word-spacing:0px;fill:#ff6600;fill-opacity:1;stroke:none;stroke-width:1px;stroke-linecap:butt;stroke-linejoin:miter;stroke-opacity:1"
           transform="matrix(0.80394045,0,0,0.880154,9.373335,-251.02839)">
          <path
             inkscape:connector-curvature="0"
             id="path3363"
             style="fill:#409014"
             d="m 157.19212,655.71006 23.16614,88.33755 H 169.04147 L 154.99533,690.05985 130.83065,747.30951 106.5994,689.66044 92.420129,744.04761 H 81.103337 l 23.166143,-88.33755 26.56117,63.2409 z" />
          <path
             inkscape:connector-curvature="0"
             id="path3365"
             style="font-style:normal;font-variant:normal;font-weight:normal;font-stretch:normal;font-family:'Tw Cen MT';-inkscape-font-specification:'Tw Cen MT';fill:#ff6600"
             d="m 224.02776,655.97634 40.07476,88.07127 H 251.9869 l -9.91884,-21.70162 h -36.01403 l -9.65255,21.70162 h -12.04906 z m 0,26.56117 -13.64672,30.15593 h 27.29344 z" />
          <path
             inkscape:connector-curvature="0"
             id="path3367"
             style="font-style:normal;font-variant:normal;font-weight:normal;font-stretch:normal;font-family:'Tw Cen MT';-inkscape-font-specification:'Tw Cen MT';fill:#ff6600"
             d="m 277.4164,659.23824 h 17.04176 q 14.44555,0 23.29927,6.79007 8.85373,6.79008 8.85373,17.64088 0,10.91738 -9.38628,18.30658 -9.31971,7.3892 -28.35855,7.18949 v 34.88235 H 277.4164 Z m 11.44993,10.11854 v 29.68994 q 13.04759,-0.13314 19.30511,-3.66132 6.32409,-3.59474 6.32409,-11.44993 0,-5.92467 -4.79299,-10.25168 -4.72642,-4.32701 -20.83621,-4.32701 z" />
          <path
             inkscape:connector-curvature="0"
             id="path3369"
             style="font-style:normal;font-variant:normal;font-weight:normal;font-stretch:normal;font-family:'Tw Cen MT';-inkscape-font-specification:'Tw Cen MT';fill:#ff6600"
             d="m 345.58344,659.23824 h 17.04175 q 14.44556,0 23.29928,6.79007 8.85373,6.79008 8.85373,17.64088 0,10.91738 -9.38628,18.30658 -9.31971,7.3892 -28.35855,7.18949 v 34.88235 h -11.44993 z m 11.44993,10.11854 v 29.68994 q 13.04759,-0.13314 19.30511,-3.66132 6.32409,-3.59474 6.32409,-11.44993 0,-5.92467 -4.79299,-10.25168 -4.72643,-4.32701 -20.83621,-4.32701 z" />
          <path
             inkscape:connector-curvature="0"
             id="path3371"
             style="font-style:normal;font-variant:normal;font-weight:normal;font-stretch:normal;font-family:'Tw Cen MT';-inkscape-font-specification:'Tw Cen MT';fill:#ff6600"
             d="m 410.08914,659.23824 h 46.99798 v 11.58307 h -35.54805 v 21.16905 h 35.54805 v 11.44993 h -35.54805 v 29.15739 h 35.54805 v 11.44993 h -46.99798 z" />
          <path
             inkscape:connector-curvature="0"
             id="path3373"
             style="font-style:normal;font-variant:normal;font-weight:normal;font-stretch:normal;font-family:'Tw Cen MT';-inkscape-font-specification:'Tw Cen MT';fill:#ff6600"
             d="m 472.46464,659.23824 h 18.37314 q 13.71329,0 22.30074,6.85664 8.65402,6.79008 8.65402,17.44117 0,8.52088 -5.59183,15.04468 -5.59183,6.5238 -17.44117,9.18657 l 24.69723,36.28031 h -13.2473 l -23.56556,-34.88235 h -2.5962 v 34.88235 h -11.58307 z m 11.58307,10.25168 v 29.5568 q 25.6292,0.53255 25.6292,-14.84497 0,-5.39212 -2.99562,-8.78716 -2.99562,-3.46161 -7.98832,-4.65985 -4.99271,-1.26482 -14.64526,-1.26482 z" />
          <path
             inkscape:connector-curvature="0"
             id="path3375"
             style="font-style:normal;font-variant:normal;font-weight:normal;font-stretch:normal;font-family:'Tw Cen MT';-inkscape-font-specification:'Tw Cen MT';fill:#ff6600"
             d="m 590.62525,668.62452 -9.38628,7.52233 q -3.72788,-3.86102 -6.79007,-5.72496 -2.99562,-1.93051 -8.72059,-1.93051 -6.25752,0 -10.18511,2.86248 -3.86103,2.79591 -3.86103,7.25606 0,3.86102 3.39504,6.85665 3.39504,2.92905 11.58307,6.45722 8.18803,3.46161 12.71475,6.5238 4.59329,2.99562 7.52234,6.65694 2.92905,3.66131 4.32701,7.72204 1.46452,4.06074 1.46452,8.58745 0,10.58453 -7.72204,18.0403 -7.65548,7.45577 -18.57286,7.45577 -10.6511,0 -18.83913,-5.79153 -8.12146,-5.85811 -12.51504,-17.50775 l 11.58307,-3.2619 q 6.32409,14.31242 19.37169,14.31242 6.32409,0 10.51796,-3.79446 4.19387,-3.79445 4.19387,-9.58599 0,-3.4616 -2.19679,-6.92321 -2.19679,-3.52818 -5.45869,-5.79153 -3.2619,-2.26336 -10.45139,-5.12585 -7.12292,-2.92905 -10.98395,-5.32554 -3.79445,-2.46307 -6.59036,-5.79154 -2.79592,-3.39504 -4.1273,-6.72351 -1.26482,-3.32846 -1.26482,-7.12292 0,-9.12 7.32263,-15.51066 7.32263,-6.45723 17.77402,-6.45723 6.92321,0 14.04614,2.99562 7.12292,2.99562 11.84934,9.12001 z" />
        </g>
        <g
           id="g3908"
           transform="matrix(0.68801986,0,0,0.68801986,-16.782143,-184.08349)">
          <g
             transform="scale(0.98589538,1.0143064)"
             style="font-style:normal;font-variant:normal;font-weight:normal;font-stretch:normal;font-size:348.96710205px;line-height:125%;font-family:'Tw Cen MT';-inkscape-font-specification:'Tw Cen MT';letter-spacing:0px;word-spacing:0px;fill:#214478;fill-opacity:1;stroke:none;stroke-width:1px;stroke-linecap:butt;stroke-linejoin:miter;stroke-opacity:1"
             id="text3756-6">
            <path
               inkscape:connector-curvature="0"
               d="m 138.59345,495.23763 h 43.62089 q 36.97552,0 59.63793,17.3802 22.66241,17.38019 22.66241,45.15443 0,27.94463 -24.02556,46.85838 -23.85518,18.91374 -72.58789,18.40256 v 89.2865 h -29.30778 z m 29.30778,25.8999 v 75.99577 q 33.39725,-0.34079 49.41429,-9.37168 16.18744,-9.20128 16.18744,-29.30778 0,-15.16508 -12.26838,-26.24069 -12.09798,-11.07562 -53.33335,-11.07562 z"
               style="font-style:normal;font-variant:normal;font-weight:normal;font-stretch:normal;font-family:'Tw Cen MT';-inkscape-font-specification:'Tw Cen MT';fill:#214478"
               id="path3378" />
            <path
               inkscape:connector-curvature="0"
               d="m 297.05996,602.41551 q 0,-47.02877 35.44197,-80.5964 35.44197,-33.56764 85.19704,-33.56764 48.56232,0 83.6635,33.90842 35.10119,33.73803 35.10119,80.25562 0,49.2439 -34.7604,83.32271 -34.59,33.90843 -85.02665,33.90843 -49.75508,0 -84.68586,-34.24921 -34.93079,-34.24922 -34.93079,-82.98193 z m 207.88079,1.36316 q 0,-35.95316 -25.8999,-60.48991 -25.8999,-24.70714 -63.72739,-24.70714 -35.95316,0 -61.68267,25.04793 -25.55911,25.04793 -25.55911,60.14912 0,35.61236 26.24069,60.3195 26.41109,24.53675 64.57936,24.53675 35.10119,0 60.48991,-25.04793 25.55911,-25.21832 25.55911,-59.80832 z"
               style="font-style:normal;font-variant:normal;font-weight:normal;font-stretch:normal;font-family:'Tw Cen MT';-inkscape-font-specification:'Tw Cen MT';fill:#214478"
               id="path3380" />
            <path
               inkscape:connector-curvature="0"
               d="m 579.57335,495.23763 h 29.30779 v 187.77429 h 70.71354 V 712.3197 H 579.57335 Z"
               style="font-style:normal;font-variant:normal;font-weight:normal;font-stretch:normal;font-family:'Tw Cen MT';-inkscape-font-specification:'Tw Cen MT';fill:#214478"
               id="path3382" />
            <path
               inkscape:connector-curvature="0"
               d="m 709.24325,495.23763 h 29.30778 V 712.3197 h -29.30778 z"
               style="font-style:normal;font-variant:normal;font-weight:normal;font-stretch:normal;font-family:'Tw Cen MT';-inkscape-font-specification:'Tw Cen MT';fill:#214478"
               id="path3384" />
          </g>
        </g>
      </g>
    </g>
  </g>
</svg>
